<svg width="17" height="17" viewBox="0 0 17 17" fill="none" xmlns="http://www.w3.org/2000/svg">
<path d="M16.8124 15.9397C15.509 16.3518 14.0962 16.0356 13.1246 15.1144L9.57506 11.7492L2.17945 14.7541L0.770743 13.4186L6.75769 9.07802L3.52172 6.01003L1.40867 6.67787L0 5.34226L3.52172 3.3389L5.63476 0L7.04343 1.33558L6.33909 3.33887L9.57506 6.40686L14.1533 0.730701L15.562 2.06628L12.3925 9.07799L15.942 12.4433C16.9136 13.3644 17.2472 14.7039 16.8124 15.9397Z" fill="white"/>
<path d="M15.914 7.74277C15.525 8.11162 14.8943 8.11162 14.5053 7.74277L14.2075 7.46049L15.0527 5.59064L15.914 6.4072C16.3029 6.77605 16.3029 7.37395 15.914 7.74277Z" fill="white"/>
<path d="M8.16641 15.0884C7.77744 15.4572 7.14675 15.4572 6.75774 15.0884L5.89648 14.2718L7.86868 13.4705L8.16641 13.7528C8.55545 14.1216 8.55545 14.7195 8.16641 15.0884Z" fill="white"/>
</svg>
