<svg width="17" height="17" viewBox="0 0 17 17" fill="none" xmlns="http://www.w3.org/2000/svg">
<path d="M16.8124 0.177788C15.509 -0.23434 14.0962 0.0819337 13.1246 1.00308L9.57506 4.36832L2.17945 1.36336L0.770743 2.69888L6.75769 7.03944L3.52172 10.1074L1.40867 9.43959L0 10.7752L3.52172 12.7785L5.63476 16.1174L7.04343 14.7819L6.33909 12.7786L9.57506 9.71059L14.1533 15.3867L15.562 14.0512L12.3925 7.03947L15.942 3.6742C16.9136 2.75305 17.2472 1.41361 16.8124 0.177788Z" fill="white"/>
<path d="M15.914 8.37472C15.525 8.00587 14.8943 8.00587 14.5053 8.37472L14.2075 8.65699L15.0527 10.5268L15.914 9.71025C16.3029 9.34141 16.3029 8.74353 15.914 8.37472Z" fill="white"/>
<path d="M8.16641 1.02913C7.77744 0.660294 7.14675 0.660294 6.75774 1.02913L5.89648 1.84568L7.86868 2.64697L8.16641 2.36464C8.55545 1.99587 8.55545 1.39796 8.16641 1.02913Z" fill="white"/>
</svg>
