<svg width="140" height="80" viewBox="0 0 140 80" fill="none" xmlns="http://www.w3.org/2000/svg">
<mask id="mask0" mask-type="alpha" maskUnits="userSpaceOnUse" x="0" y="0" width="140" height="80">
<rect width="140" height="80" fill="#C4C4C4"/>
</mask>
<g mask="url(#mask0)">
</g>
<g clip-path="url(#clip0)">
<path d="M107.409 49.6636H87.1592V74.6111H107.409V49.6636Z" fill="url(#paint0_linear)"/>
<path d="M87.6451 55.0131H87.1592V74.6095H107.408L87.6451 55.0131Z" fill="url(#paint1_linear)"/>
<path d="M87.1592 55.0085H107.365C108.193 55.0085 108.785 54.2089 108.545 53.4167L106.54 46.8121C106.382 46.2922 105.903 45.9369 105.36 45.9369H87.1592V55.0085Z" fill="url(#paint2_linear)"/>
<path d="M87.5556 35.0965V74.6095H36.229V35.0965L61.8921 9.27795L87.5556 35.0965Z" fill="url(#paint3_linear)"/>
<path d="M87.5551 35.0971V74.6102H71.351L36.2295 39.4886V35.0971L61.8921 9.27877L64.7303 12.1347L65.0559 12.4621L87.5551 35.0971Z" fill="url(#paint4_linear)"/>
<path d="M87.5549 35.097V61.5309L59.1593 33.1353C56.4573 30.6844 54.5912 27.3295 54.0371 23.547L65.0557 12.4619L87.5549 35.097Z" fill="url(#paint5_linear)"/>
<path d="M79.6244 74.6095H54.5226L40.7241 60.8111C40.1166 60.4173 39.7124 59.7339 39.7124 58.9588V47.8531C39.7124 46.6366 40.703 45.6458 41.9197 45.6458H49.9262C50.703 45.6458 51.3866 46.0502 51.7802 46.6575L51.7202 46.7052L79.6244 74.6095Z" fill="url(#paint6_linear)"/>
<path d="M49.9259 59.872H41.9201C41.4152 59.872 41.0059 59.4628 41.0059 58.9578V47.8539C41.0059 47.3489 41.4151 46.9397 41.9201 46.9397H49.9259C50.4307 46.9397 50.8401 47.3489 50.8401 47.8539V58.9578C50.8399 59.4628 50.4307 59.872 49.9259 59.872Z" fill="#503837"/>
<path d="M49.9262 61.1659H41.9204C40.7029 61.1659 39.7124 60.1753 39.7124 58.9579V47.8539C39.7124 46.6364 40.703 45.6459 41.9204 45.6459H49.9262C51.1437 45.6459 52.1341 46.6365 52.1341 47.8539V58.9579C52.1341 60.1753 51.1438 61.1659 49.9262 61.1659ZM42.3002 58.5781H49.5463V48.2337H42.3002V58.5781Z" fill="white"/>
<path d="M87.5567 50.2266V74.6097H86.7691L72.9706 60.8112C72.3614 60.4175 71.957 59.7341 71.957 58.9589V47.8531C71.957 46.6366 72.9477 45.6458 74.1661 45.6458H82.1708C82.9477 45.6458 83.6311 46.0502 84.0248 46.6575L84.0567 46.6823L84.0355 46.7053L87.5567 50.2266Z" fill="url(#paint7_linear)"/>
<path d="M82.171 59.872H74.1652C73.6602 59.872 73.251 59.4628 73.251 58.9578V47.8539C73.251 47.3489 73.6602 46.9397 74.1652 46.9397H82.171C82.676 46.9397 83.0852 47.3489 83.0852 47.8539V58.9578C83.0852 59.4628 82.676 59.872 82.171 59.872Z" fill="#503837"/>
<path d="M82.1713 61.1659H74.1655C72.948 61.1659 71.9575 60.1753 71.9575 58.9579V47.8539C71.9575 46.6364 72.9481 45.6459 74.1655 45.6459H82.1713C83.3888 45.6459 84.3792 46.6365 84.3792 47.8539V58.9579C84.3794 60.1753 83.3889 61.1659 82.1713 61.1659ZM74.5455 58.5781H81.7916V48.2337H74.5455V58.5781Z" fill="white"/>
<path d="M93.3591 38.6661L63.4368 8.73405C62.5839 7.88124 61.201 7.88124 60.3482 8.73405L30.4185 38.6637C29.8605 39.2217 29.8605 40.1264 30.4185 40.6844L31.6941 41.96C32.2521 42.518 33.1568 42.518 33.7147 41.96L61.4858 14.1887C61.7103 13.9642 62.0744 13.9642 62.2989 14.1887L90.0628 41.9622C90.6208 42.5202 91.5255 42.5202 92.0835 41.9622L93.3591 40.6866C93.9171 40.1286 93.9171 39.2241 93.3591 38.6661Z" fill="url(#paint8_linear)"/>
<path d="M63.437 8.73405C63.0104 8.30749 62.4515 8.09436 61.8926 8.09436V14.0203C62.0398 14.0203 62.1868 14.0764 62.2991 14.1887L90.0631 41.9622C90.621 42.5202 91.5257 42.5202 92.0837 41.9622L93.3593 40.6866C93.9173 40.1286 93.9173 39.2239 93.3593 38.6659L63.437 8.73405Z" fill="url(#paint9_linear)"/>
<path d="M56.5439 74.6087V46.5697C56.5439 45.333 57.5464 44.3303 58.7833 44.3303H65.0013C66.238 44.3303 67.2407 45.3328 67.2407 46.5697V74.6087H56.5439Z" fill="#FFBF5C"/>
<path d="M68.5652 74.6088H65.9164V47.333C65.9164 46.41 65.1611 45.6547 64.2382 45.6547H59.5468C58.6199 45.6547 57.8685 46.4061 57.8685 47.333V74.6088H55.2197V45.5816C55.2197 44.1591 56.3729 43.0061 57.7952 43.0061H65.9897C67.4122 43.0061 68.5652 44.1592 68.5652 45.5816V74.6088Z" fill="#FFE7A5"/>
<path d="M59.9953 56.0617C60.6622 56.0617 61.2029 55.521 61.2029 54.8541C61.2029 54.1871 60.6622 53.6464 59.9953 53.6464C59.3283 53.6464 58.7876 54.1871 58.7876 54.8541C58.7876 55.521 59.3283 56.0617 59.9953 56.0617Z" fill="white"/>
<path d="M87.5571 67.5428H36.2285V74.6095H87.5571V67.5428Z" fill="url(#paint10_linear)"/>
<path d="M45.0848 71.8477C45.0848 72.8227 44.9003 73.7536 44.5636 74.6087H30.5213C30.1845 73.7536 30 72.823 30 71.8477C30 70.8981 30.175 69.9903 30.4956 69.1539C31.5798 66.3173 34.3261 64.3052 37.5423 64.3052C40.7586 64.3052 43.505 66.3173 44.5891 69.1539C44.9098 69.9905 45.0848 70.8983 45.0848 71.8477Z" fill="url(#paint11_linear)"/>
<path d="M49.9484 72.6059C49.9484 73.3133 49.8146 73.9884 49.5704 74.6087H39.3838C39.1396 73.9884 39.0059 73.3133 39.0059 72.6059C39.0059 71.9172 39.1329 71.2586 39.3654 70.6519C40.152 68.5944 42.144 67.1345 44.4773 67.1345C46.8105 67.1345 48.8026 68.5941 49.5891 70.6519C49.8213 71.2588 49.9484 71.9172 49.9484 72.6059Z" fill="url(#paint12_linear)"/>
<path d="M110 71.3903C110 72.5269 109.785 73.612 109.393 74.6087H93.0235C92.631 73.6117 92.416 72.5269 92.416 71.3903C92.416 70.2834 92.6201 69.2253 92.9937 68.2501C94.2576 64.9436 97.4588 62.5981 101.208 62.5981C104.957 62.5981 108.158 64.9437 109.422 68.2501C109.796 69.2253 110 70.2834 110 71.3903Z" fill="url(#paint13_linear)"/>
<path d="M69.9999 37.6369C78.9049 37.6369 86.1238 30.418 86.1238 21.513C86.1238 12.608 78.9049 5.38907 69.9999 5.38907C61.0949 5.38907 53.876 12.608 53.876 21.513C53.876 30.418 61.0949 37.6369 69.9999 37.6369Z" fill="url(#paint14_linear)"/>
<path d="M86.1036 22.3334L76.0626 12.2925C75.8393 11.9037 75.3758 11.5828 74.671 11.3293C73.9479 11.0698 73.1769 10.8931 72.3604 10.7959L71.2821 9.83404C71.2604 9.68185 71.1713 9.54404 71.006 9.42216C70.8155 9.28232 70.6104 9.21201 70.3904 9.21201C70.1501 9.21201 69.9444 9.28247 69.7746 9.42216C69.6043 9.56263 69.5193 9.72263 69.5193 9.90279V10.774C67.8971 10.9543 66.5404 11.495 65.449 12.3962C64.3572 13.2975 63.8118 14.6183 63.8118 16.3576C63.8118 16.9772 63.8818 17.5418 64.0219 18.0514C64.1621 18.5611 64.3922 19.0056 64.7129 19.3853C65.0329 19.765 65.3387 20.0898 65.629 20.3597C65.6443 20.3739 65.6616 20.3883 65.6776 20.4025L69.519 24.2525V29.2778C68.6315 29.2178 67.8499 28.9883 67.174 28.5883C66.4982 28.1889 65.9672 27.8143 65.5805 27.4642C65.1937 27.1145 64.8816 26.9395 64.6443 26.9395C64.2857 26.9395 63.9674 27.1297 63.6887 27.5092C63.4099 27.889 63.271 28.2686 63.271 28.6483C63.271 29.2706 63.6319 29.8837 64.3512 30.4878L71.4358 37.5725C79.3991 36.8695 85.7001 30.3792 86.1036 22.3334Z" fill="url(#paint15_linear)"/>
<path d="M63.2715 28.6481C63.2715 28.2683 63.4104 27.8888 63.6891 27.5091C63.9679 27.1295 64.2862 26.9394 64.6448 26.9394C64.8823 26.9394 65.1945 27.1144 65.581 27.4641C65.9677 27.8142 66.4985 28.1888 67.1745 28.5881C67.8504 28.988 68.6318 29.2177 69.5195 29.2777V22.2331C68.9188 22.0136 68.4577 21.8384 68.1377 21.7084C67.8171 21.5789 67.3913 21.3888 66.8609 21.1391C66.3302 20.8894 65.9193 20.6294 65.6293 20.3595C65.3388 20.0897 65.0332 19.7649 64.7132 19.3852C64.3926 19.0056 64.1621 18.5609 64.0223 18.0513C63.8818 17.5416 63.8121 16.9769 63.8121 16.3575C63.8121 14.6181 64.3576 13.2972 65.4493 12.3961C66.5405 11.4949 67.8973 10.9542 69.5196 10.7739V9.90266C69.5196 9.72235 69.6046 9.56235 69.7749 9.42204C69.9448 9.2822 70.1504 9.21188 70.3907 9.21188C70.6109 9.21188 70.816 9.28235 71.0063 9.42204C71.1965 9.56251 71.2916 9.72251 71.2916 9.90266V10.7138C72.513 10.7541 73.6396 10.9592 74.671 11.3295C75.7023 11.7003 76.218 12.2156 76.218 12.8766C76.218 13.237 76.0965 13.6125 75.8543 14.003C75.6121 14.3934 75.2888 14.5888 74.8851 14.5888C74.7254 14.5888 74.2866 14.4189 73.5695 14.0781C72.8516 13.7378 72.0924 13.5374 71.2915 13.4774V19.5649C72.088 19.8649 72.7504 20.1497 73.2779 20.4194C73.8054 20.6894 74.3635 21.0639 74.9512 21.5434C75.539 22.0231 75.982 22.6277 76.2804 23.357C76.5788 24.0864 76.7285 24.9411 76.7285 25.9202C76.7285 27.7094 76.2405 29.1314 75.2645 30.1867C74.2884 31.2417 72.964 31.89 71.2913 32.1313V33.1347C71.2913 33.3116 71.1962 33.4688 71.006 33.6069C70.8155 33.7444 70.6104 33.8134 70.3904 33.8134C70.1501 33.8134 69.9445 33.7444 69.7746 33.6074C69.6043 33.4695 69.5193 33.3122 69.5193 33.1352V32.2213C67.777 32.2009 66.3001 31.8027 65.0885 31.0253C63.8771 30.2483 63.2715 29.4558 63.2715 28.6481ZM66.7862 16.0577C66.7862 16.8372 67.0288 17.4319 67.5145 17.8413C67.9998 18.2509 68.7282 18.6359 69.6998 18.9953V13.5345C67.7571 13.7747 66.7862 14.6158 66.7862 16.0577ZM71.1116 29.2175C72.8737 28.8978 73.7551 27.9084 73.7551 26.2499C73.7551 25.3708 73.5246 24.6813 73.0641 24.1817C72.6034 23.6825 71.9527 23.2525 71.1116 22.8925V29.2175Z" fill="url(#paint16_linear)"/>
</g>
<defs>
<linearGradient id="paint0_linear" x1="97.2824" y1="52.8249" x2="97.2824" y2="74.9782" gradientUnits="userSpaceOnUse">
<stop stop-color="#9FC7E2"/>
<stop offset="1" stop-color="#4975AD"/>
</linearGradient>
<linearGradient id="paint1_linear" x1="102.152" y1="73.0765" x2="79.3122" y2="60.2799" gradientUnits="userSpaceOnUse">
<stop stop-color="#9FC7E2" stop-opacity="0"/>
<stop offset="1" stop-color="#4975AD"/>
</linearGradient>
<linearGradient id="paint2_linear" x1="76.2577" y1="78.0329" x2="70.0297" y2="86.0892" gradientUnits="userSpaceOnUse">
<stop stop-color="#FF5D00"/>
<stop offset="1" stop-color="#D54003"/>
</linearGradient>
<linearGradient id="paint3_linear" x1="61.8916" y1="42.3969" x2="61.8916" y2="88.6437" gradientUnits="userSpaceOnUse">
<stop stop-color="#9FC7E2"/>
<stop offset="1" stop-color="#4975AD"/>
</linearGradient>
<linearGradient id="paint4_linear" x1="65.5734" y1="40.898" x2="43.1143" y2="18.4405" gradientUnits="userSpaceOnUse">
<stop stop-color="#9FC7E2" stop-opacity="0"/>
<stop offset="1" stop-color="#4975AD"/>
</linearGradient>
<linearGradient id="paint5_linear" x1="85.0311" y1="45.7361" x2="62.6253" y2="23.3319" gradientUnits="userSpaceOnUse">
<stop stop-color="#9FC7E2" stop-opacity="0"/>
<stop offset="1" stop-color="#4975AD"/>
</linearGradient>
<linearGradient id="paint6_linear" x1="63.6964" y1="71.1808" x2="40.5424" y2="48.0252" gradientUnits="userSpaceOnUse">
<stop stop-color="#9FC7E2" stop-opacity="0"/>
<stop offset="1" stop-color="#4975AD"/>
</linearGradient>
<linearGradient id="paint7_linear" x1="89.7091" y1="64.9466" x2="74.8828" y2="50.1218" gradientUnits="userSpaceOnUse">
<stop stop-color="#9FC7E2" stop-opacity="0"/>
<stop offset="1" stop-color="#4975AD"/>
</linearGradient>
<linearGradient id="paint8_linear" x1="63.0634" y1="34.7718" x2="56.8353" y2="60.7602" gradientUnits="userSpaceOnUse">
<stop stop-color="#FF5D00"/>
<stop offset="1" stop-color="#D54003"/>
</linearGradient>
<linearGradient id="paint9_linear" x1="90.2089" y1="38.9274" x2="79.3307" y2="28.0477" gradientUnits="userSpaceOnUse">
<stop stop-color="#D54003" stop-opacity="0"/>
<stop offset="1" stop-color="#A40002"/>
</linearGradient>
<linearGradient id="paint10_linear" x1="36.2283" y1="71.0763" x2="87.5559" y2="71.0763" gradientUnits="userSpaceOnUse">
<stop stop-color="#FF5D00"/>
<stop offset="1" stop-color="#D54003"/>
</linearGradient>
<linearGradient id="paint11_linear" x1="33.2891" y1="67.1524" x2="42.5959" y2="76.4589" gradientUnits="userSpaceOnUse">
<stop stop-color="#9EB644"/>
<stop offset="1" stop-color="#738611"/>
</linearGradient>
<linearGradient id="paint12_linear" x1="41.3909" y1="69.1994" x2="48.1422" y2="75.9507" gradientUnits="userSpaceOnUse">
<stop stop-color="#9EB644"/>
<stop offset="1" stop-color="#738611"/>
</linearGradient>
<linearGradient id="paint13_linear" x1="96.248" y1="65.9165" x2="107.096" y2="76.7648" gradientUnits="userSpaceOnUse">
<stop stop-color="#9EB644"/>
<stop offset="1" stop-color="#738611"/>
</linearGradient>
<linearGradient id="paint14_linear" x1="62.6829" y1="14.1985" x2="87.3427" y2="38.8568" gradientUnits="userSpaceOnUse">
<stop stop-color="#FFE7A5"/>
<stop offset="0.966" stop-color="#FFBF5C"/>
</linearGradient>
<linearGradient id="paint15_linear" x1="80.4331" y1="28.4477" x2="48.575" y2="11.0614" gradientUnits="userSpaceOnUse">
<stop stop-color="#FF5D00" stop-opacity="0"/>
<stop offset="1" stop-color="#D54003"/>
</linearGradient>
<linearGradient id="paint16_linear" x1="69.9992" y1="15.8438" x2="69.9992" y2="37.186" gradientUnits="userSpaceOnUse">
<stop stop-color="white"/>
<stop offset="1" stop-color="#E2EDF2"/>
</linearGradient>
<clipPath id="clip0">
<rect width="80" height="80" fill="white" transform="translate(30)"/>
</clipPath>
</defs>
</svg>
