<svg width="140" height="80" viewBox="0 0 140 80" fill="none" xmlns="http://www.w3.org/2000/svg">
<mask id="mask0" mask-type="alpha" maskUnits="userSpaceOnUse" x="0" y="0" width="140" height="80">
<rect width="140" height="80" fill="#C4C4C4"/>
</mask>
<g mask="url(#mask0)">
</g>
<g clip-path="url(#clip0)">
<path d="M102.8 72.0715C102.452 72.6904 101.794 73.1159 101.06 73.1159H79.6659L75.7997 69.2492H64.2001L60.3339 73.1159H38.9395C38.2048 73.1159 37.5477 72.6904 37.1997 72.0715C36.8906 71.4144 36.9293 70.641 37.3931 70.0609L43.7085 61.5163L52.601 59.5832L46.5309 57.6496L49.3149 53.7834L56.4677 51.8503L52.1373 49.9173L54.9596 46.0506L64.2001 44.1175L57.782 42.1844L68.453 27.5303C68.8015 27.0278 69.3815 26.7957 69.9999 26.7957C70.6182 26.7957 71.1983 27.0278 71.5468 27.5303L79.4337 38.3177L75.7997 40.2508L82.2178 42.1844L85.0401 46.0506L79.6659 47.9837L87.8625 49.9173L90.6848 53.7834L87.3987 55.7165L93.4689 57.6496L96.2913 61.5163L91.2649 63.4494L99.1141 65.3825L102.607 70.0609C103.07 70.641 103.109 71.4144 102.8 72.0715Z" fill="#FFD400"/>
<path d="M102.8 72.0715C102.452 72.6904 101.795 73.1159 101.06 73.1159H79.666L75.7998 69.2492H70V26.7957C70.6183 26.7957 71.1984 27.0278 71.5469 27.5303L79.4338 38.3177L75.7998 40.2508L82.2179 42.1844L85.0403 46.0506L79.666 47.9837L87.8626 49.9173L90.685 53.7834L87.3989 55.7165L93.469 57.6496L96.2914 61.5163L91.265 63.4494L99.1142 65.3825L102.607 70.0609C103.071 70.641 103.109 71.4144 102.8 72.0715Z" fill="#FDBF00"/>
<path d="M58.4008 49.9172H52.1443L49.3325 53.7834H58.4008C59.4693 53.7834 60.3339 52.9188 60.3339 51.8503C60.3339 50.7818 59.4693 49.9172 58.4008 49.9172Z" fill="#FDBF00"/>
<path d="M102.994 18.9858C102.994 25.4039 97.6832 30.5853 91.2651 30.5853C84.8469 30.5853 79.666 25.4039 79.666 18.9858C79.666 12.5676 84.8469 7.12888 91.2651 7.12888C97.6832 7.12888 102.994 12.5676 102.994 18.9858Z" fill="#FFE470"/>
<path d="M60.3339 11.124H56.1122C55.3136 8.87667 53.1892 7.12888 50.6679 7.12888C48.1462 7.12888 46.0218 8.87667 45.2231 11.124H44.8681C42.7326 11.124 41.002 12.9841 41.002 15.1196C41.002 17.2551 42.7326 18.9858 44.8681 18.9858H60.3339C62.4694 18.9858 64.2001 17.2551 64.2001 15.1196C64.2001 12.9841 62.4694 11.124 60.3339 11.124Z" fill="#EDE9E8"/>
<path d="M102.994 18.9858C102.994 25.4039 97.6833 30.5853 91.2651 30.5853V7.12888C97.6833 7.12888 102.994 12.5676 102.994 18.9858Z" fill="#FDBF00"/>
<path d="M102.994 30.5853C102.994 32.7118 101.125 34.4515 98.998 34.4515H83.5327C81.4057 34.4515 79.666 32.7118 79.666 30.5853C79.666 28.4584 81.4057 26.7186 83.5327 26.7186H87.7468C88.3269 25.0947 89.6417 23.78 91.2651 23.1999C91.8452 22.9682 92.5028 22.8524 93.1987 22.8524C95.7118 22.8524 97.8383 24.4758 98.65 26.7186H98.998C101.124 26.7186 102.994 28.4584 102.994 30.5853Z" fill="#EDE9E8"/>
<path d="M102.994 30.5853C102.994 32.7118 101.125 34.4515 98.998 34.4515H91.2651V23.1999C91.8452 22.9682 92.5028 22.8524 93.1987 22.8524C95.7119 22.8524 97.8383 24.4758 98.6501 26.7186H98.998C101.124 26.7186 102.994 28.4584 102.994 30.5853Z" fill="#DFD7D5"/>
<path d="M68.0667 44.1175C68.0667 43.049 67.2022 42.1844 66.1331 42.1844H57.7683L54.9565 46.0506H66.1331C67.2022 46.0506 68.0667 45.186 68.0667 44.1175Z" fill="#FDBF00"/>
<path d="M56.4672 59.5832C56.4672 58.5147 55.6026 57.6501 54.5341 57.6501H46.5208L43.7085 61.5163H54.5341C55.6026 61.5163 56.4672 60.6517 56.4672 59.5832Z" fill="#FDBF00"/>
<path d="M75.7998 47.9842C75.7998 49.0527 76.6644 49.9173 77.7329 49.9173H87.8556L85.0433 46.0506H77.7329C76.6644 46.0506 75.7998 46.9156 75.7998 47.9842Z" fill="#FF9F00"/>
<path d="M87.3989 63.4494C87.3989 64.5179 88.2635 65.383 89.332 65.383H99.1032L96.2909 61.5163H89.332C88.2635 61.5163 87.3989 62.3809 87.3989 63.4494Z" fill="#FF9F00"/>
<path d="M83.5327 55.7165C83.5327 56.7856 84.3973 57.6501 85.4658 57.6501H93.4791L90.6674 53.7834H85.4658C84.3973 53.7834 83.5327 54.648 83.5327 55.7165Z" fill="#FF9F00"/>
<path d="M71.9331 40.2513C71.9331 41.3198 72.7977 42.1844 73.8662 42.1844H82.2315L79.4198 38.3177H73.8662C72.7977 38.3177 71.9331 39.1828 71.9331 40.2513Z" fill="#FF9F00"/>
<path d="M79.6659 55.7165V73.1159H75.7997L73.8661 69.2492L71.933 73.1159H68.0669L66.1333 69.2492L64.2002 73.1159H60.334V55.7165C60.334 54.6339 61.1845 53.7834 62.2671 53.7834H77.7328C78.8154 53.7834 79.6659 54.6339 79.6659 55.7165Z" fill="#FDBF00"/>
<path d="M79.666 55.7165V73.1159H75.7998L73.8662 69.2492L71.9331 73.1159H70V53.7834H77.7329C78.8155 53.7834 79.666 54.6339 79.666 55.7165Z" fill="#FF9F00"/>
<path d="M64.2002 57.6501H68.0669V73.1158H64.2002V57.6501Z" fill="#FF7816"/>
<path d="M71.9331 57.6501H75.7998V73.1158H71.9331V57.6501Z" fill="#FF4B00"/>
</g>
<defs>
<clipPath id="clip0">
<rect width="66" height="66" fill="white" transform="translate(37 7)"/>
</clipPath>
</defs>
</svg>
