<svg width="17" height="17" viewBox="0 0 17 17" fill="none" xmlns="http://www.w3.org/2000/svg">
<path d="M14.8086 1.32812H13.2812V0.53125C13.2812 0.237867 13.0434 0 12.75 0C12.4566 0 12.2188 0.237867 12.2188 0.53125V1.32812H4.78125V0.53125C4.78125 0.237867 4.54342 0 4.25 0C3.95658 0 3.71875 0.237867 3.71875 0.53125V1.32812H2.19141C0.983045 1.32812 0 2.31117 0 3.51953V14.8086C0 16.017 0.983045 17 2.19141 17H14.8086C16.017 17 17 16.017 17 14.8086V3.51953C17 2.31117 16.017 1.32812 14.8086 1.32812ZM15.9375 14.8086C15.9375 15.4321 15.4321 15.9375 14.8086 15.9375H2.19141C1.56792 15.9375 1.0625 15.4321 1.0625 14.8086V6.00977C1.0625 5.91809 1.13684 5.84375 1.22852 5.84375H15.7715C15.8632 5.84375 15.9375 5.91809 15.9375 6.00977V14.8086Z" fill="white"/>
</svg>
