<svg width="140" height="80" viewBox="0 0 140 80" fill="none" xmlns="http://www.w3.org/2000/svg">
<mask id="mask0" mask-type="alpha" maskUnits="userSpaceOnUse" x="0" y="0" width="140" height="80">
<rect width="140" height="80" fill="#C4C4C4"/>
</mask>
<g mask="url(#mask0)">
</g>
<g clip-path="url(#clip0)">
<path d="M98.8778 39.8475L93.3675 28.2837C92.4239 26.3041 90.5011 25.0545 88.3985 25.0545H50.4887C48.6628 25.0545 47.0224 26.2301 46.3517 28.0197L40.6979 43.1053C40.5303 43.5522 40.1203 43.8468 39.6638 43.8468H39.6632C37.8806 43.8468 36.4353 45.3692 36.4353 47.2468V59.6146H107.139V45.7339C107.139 44.2217 106.106 42.8784 104.575 42.4002L100.233 41.0429C99.6441 40.8586 99.1532 40.4257 98.8778 39.8475Z" fill="#E58D23"/>
<path d="M48.8031 43.8462H48.8038C49.2603 43.8462 49.6708 43.5523 49.8385 43.1047L55.4923 28.0191C56.1623 26.2295 57.8034 25.0539 59.6293 25.0539H50.4895C48.6635 25.0539 47.0225 26.2295 46.3524 28.0191L40.6987 43.1047C40.531 43.5516 40.121 43.8462 39.6639 43.8462H39.6633C37.8807 43.8462 36.436 45.368 36.436 47.2462V59.6139H45.5759V47.2462C45.5759 45.368 47.0206 43.8462 48.8031 43.8462Z" fill="#BF6C0D"/>
<path d="M107.767 62.9043H35.8081C35.1272 62.9043 34.5757 62.3522 34.5757 61.6719V54.3433C34.5757 53.6631 35.1272 53.1116 35.8081 53.1116H107.768C108.448 53.1116 109 53.6631 109 54.3433V61.6719C109 62.3522 108.448 62.9043 107.767 62.9043Z" fill="#FFA730"/>
<path d="M87.9632 30.3257H76.2808C75.9378 30.3257 75.6592 30.5667 75.6592 30.8632V40.332C75.6592 40.6284 75.9378 40.8694 76.2808 40.8694H92.8653C93.316 40.8694 93.6169 40.4678 93.4333 40.1127L88.5924 30.742C88.5529 30.6649 88.5102 30.6011 88.4687 30.5488C88.3559 30.406 88.164 30.3257 87.9632 30.3257Z" fill="#FFC34C"/>
<path d="M70.3247 30.3257H51.4425C51.1785 30.3257 50.9426 30.4698 50.8553 30.6853L47.0083 40.1541C46.8662 40.5035 47.1665 40.8694 47.5949 40.8694H70.3247C70.6683 40.8694 70.9469 40.6291 70.9469 40.332V30.8638C70.9469 30.5667 70.6683 30.3257 70.3247 30.3257Z" fill="#FFC34C"/>
<path d="M106.852 45.98C106.762 45.8525 106.673 45.725 106.576 45.6032H103.515C102.83 45.6032 102.275 46.1279 102.275 46.775V49.7033C102.275 50.3504 102.83 50.8751 103.515 50.8751H106.851V45.98H106.852Z" fill="#F9BB32"/>
<path d="M43.7148 61.6719V54.3433C43.7148 53.6631 44.2663 53.1116 44.9472 53.1116H35.8073C35.1264 53.1116 34.575 53.6631 34.575 54.3433V61.6719C34.575 62.3522 35.1264 62.9043 35.8073 62.9043H44.9472C44.2669 62.9043 43.7148 62.3522 43.7148 61.6719Z" fill="#E58D23"/>
<path d="M60.2669 64.7538C60.2669 69.6259 56.3167 73.5762 51.4439 73.5762C46.5718 73.5762 42.6216 69.6259 42.6216 64.7538C42.6216 59.8811 46.5718 55.9308 51.4439 55.9308C56.3167 55.9308 60.2669 59.8811 60.2669 64.7538Z" fill="#BF6C0D"/>
<path d="M55.9977 64.7538C55.9977 67.2683 53.9588 69.3072 51.4437 69.3072C48.9293 69.3072 46.8904 67.2683 46.8904 64.7538C46.8904 62.2387 48.9293 60.1998 51.4437 60.1998C53.9588 60.1998 55.9977 62.2387 55.9977 64.7538Z" fill="#FFD551"/>
<path d="M101.44 64.7538C101.44 69.6259 97.4893 73.5762 92.6165 73.5762C87.7444 73.5762 83.7942 69.6259 83.7942 64.7538C83.7942 59.8811 87.7444 55.9308 92.6165 55.9308C97.4893 55.9308 101.44 59.8811 101.44 64.7538Z" fill="#BF6C0D"/>
<path d="M97.1706 64.7538C97.1706 67.2683 95.1317 69.3072 92.6166 69.3072C90.1021 69.3072 88.0632 67.2683 88.0632 64.7538C88.0632 62.2387 90.1021 60.1998 92.6166 60.1998C95.1317 60.1998 97.1706 62.2387 97.1706 64.7538Z" fill="#FFD551"/>
<path d="M79.5763 33.4745C79.5763 33.1781 79.8549 32.9371 80.1979 32.9371H89.7266L88.5924 30.7427C88.5529 30.6655 88.5102 30.6018 88.4688 30.5488C88.3553 30.406 88.164 30.3257 87.9632 30.3257H76.2808C75.9378 30.3257 75.6592 30.5661 75.6592 30.8632V40.332C75.6592 40.6284 75.9378 40.8694 76.2808 40.8694H79.5763V33.4745Z" fill="#FFB74B"/>
<path d="M54.7724 33.2967C54.8597 33.0812 55.0956 32.9371 55.3596 32.9371H70.9469V30.8632C70.9469 30.5661 70.6689 30.3257 70.3253 30.3257H51.4425C51.1785 30.3257 50.9426 30.4698 50.8553 30.6853L47.0083 40.1541C46.8662 40.5035 47.1665 40.8694 47.5949 40.8694H51.6956L54.7724 33.2967Z" fill="#FFB74B"/>
<path d="M54.627 30.3257H51.4425C51.1785 30.3257 50.9426 30.4698 50.8553 30.6853L47.0083 40.1541C46.8662 40.5035 47.1665 40.8694 47.5949 40.8694H50.6761L54.627 30.3257Z" fill="#FFA730"/>
<path d="M58.0335 19.4262C58.0335 11.675 51.7575 5.3913 44.0164 5.3913C36.2754 5.3913 30 11.675 30 19.4262C30 27.1769 36.2754 33.4605 44.0164 33.4605C51.7575 33.4605 58.0335 27.1769 58.0335 19.4262Z" fill="#114A37"/>
<path d="M44.0164 31.8284C40.7089 31.8284 37.5989 30.5387 35.2598 28.197C30.4303 23.3605 30.4303 15.4919 35.2598 10.6555C37.5989 8.31318 40.7089 7.02342 44.0164 7.02342C47.324 7.02342 50.434 8.31318 52.7731 10.6555C57.6032 15.4913 57.6032 23.3605 52.7731 28.197C50.434 30.5387 47.324 31.8284 44.0164 31.8284Z" fill="white"/>
<path d="M41.7156 21.1817H45.5804L46.3319 20.3856C46.3999 20.3137 46.5124 20.3126 46.5815 20.3822L47.3749 21.1817H50.6814L51.433 20.3856C51.5004 20.3137 51.6129 20.3126 51.6826 20.3822L52.4759 21.1817L53.9545 19.5443C54.0153 19.4769 54.0153 19.3749 53.9545 19.3081L52.4759 17.6707H41.7156V21.1817Z" fill="#F9BB32"/>
<path d="M43.4905 19.4591C43.4905 19.6045 43.6075 19.722 43.7518 19.722H52.7343C52.8558 19.722 52.9544 19.6045 52.9544 19.4591C52.9544 19.3137 52.8558 19.1956 52.7343 19.1956H43.7518C43.6075 19.1956 43.4905 19.3137 43.4905 19.4591Z" fill="#FFD551"/>
<path d="M34.0327 19.4262C34.0327 21.9466 36.0612 23.9902 38.5633 23.9902C41.0653 23.9902 43.0933 21.9466 43.0933 19.4262C43.0933 16.9052 41.0653 14.8622 38.5633 14.8622C36.0612 14.8622 34.0327 16.9052 34.0327 19.4262ZM40.6542 19.4262C40.6542 20.5878 39.716 21.5327 38.5633 21.5327C37.41 21.5327 36.4724 20.5878 36.4724 19.4262C36.4724 18.2646 37.41 17.3197 38.5633 17.3197C39.716 17.3197 40.6542 18.2646 40.6542 19.4262Z" fill="#F9BB32"/>
<path d="M51.433 19.2469L50.9839 19.7221H52.1578L51.6826 19.2435C51.6575 19.2179 51.6257 19.2023 51.5934 19.1956H51.526C51.4915 19.2023 51.4591 19.2196 51.433 19.2469Z" fill="#FFC34C"/>
<path d="M46.3324 19.2468L45.8833 19.7221H47.0572L46.582 19.2435C46.5564 19.2179 46.5252 19.2023 46.4923 19.1956H46.4249C46.3903 19.2023 46.358 19.2195 46.3324 19.2468Z" fill="#FFC34C"/>
<path d="M52.78 19.7069C52.8615 19.6773 52.9246 19.6086 52.9459 19.5232L52.78 19.7069Z" fill="#FFC34C"/>
<path d="M53.1564 47.6701C53.1564 49.2927 51.8411 50.608 50.2186 50.608C48.596 50.608 47.2808 49.2927 47.2808 47.6701C47.2808 46.0476 48.596 44.7323 50.2186 44.7323C51.8411 44.7323 53.1564 46.0476 53.1564 47.6701Z" fill="#BF6C0D"/>
<path d="M46.5387 64.7538C46.5387 60.5543 49.4733 57.0427 53.4025 56.1514C52.7726 56.0086 52.1178 55.9308 51.4439 55.9308C46.5718 55.9308 42.6216 59.8804 42.6216 64.7532C42.6216 69.6259 46.5718 73.5755 51.4439 73.5755C52.1178 73.5755 52.7726 73.4978 53.4025 73.3549C49.4733 72.4643 46.5387 68.9527 46.5387 64.7538Z" fill="#A56021"/>
<path d="M87.7113 64.7538C87.7113 60.5543 90.6453 57.0427 94.5751 56.1514C93.9446 56.0086 93.2898 55.9308 92.6165 55.9308C87.7438 55.9308 83.7942 59.8804 83.7942 64.7532C83.7942 69.6259 87.7438 73.5755 92.6165 73.5755C93.2898 73.5755 93.9446 73.4978 94.5751 73.3549C90.6453 72.4643 87.7113 68.9527 87.7113 64.7538Z" fill="#A56021"/>
<path d="M49.5018 64.7538C49.5018 62.6965 50.8738 60.956 52.7494 60.393C52.3357 60.2687 51.8983 60.1998 51.4437 60.1998C48.9331 60.1998 46.8904 62.2425 46.8904 64.7538C46.8904 67.2638 48.9331 69.3072 51.4437 69.3072C51.8983 69.3072 52.3357 69.2383 52.7494 69.114C50.8738 68.551 49.5018 66.8105 49.5018 64.7538Z" fill="#FFC34C"/>
<path d="M90.6746 64.7538C90.6746 62.6965 92.0466 60.956 93.9223 60.393C93.5085 60.2687 93.0712 60.1998 92.6166 60.1998C90.1059 60.1998 88.0632 62.2425 88.0632 64.7538C88.0632 67.2638 90.1059 69.3072 92.6166 69.3072C93.0712 69.3072 93.5085 69.2383 93.9223 69.114C92.046 68.551 90.6746 66.8105 90.6746 64.7538Z" fill="#FFC34C"/>
<path d="M106.413 62.0379C105.872 62.0379 105.434 61.5999 105.434 61.0586V55.3156C105.434 54.7743 105.872 54.3363 106.413 54.3363C106.954 54.3363 107.392 54.7743 107.392 55.3156V61.0586C107.392 61.5999 106.954 62.0379 106.413 62.0379Z" fill="#FFB74B"/>
<path d="M90.2225 40.1988C89.8738 40.1988 89.5359 40.012 89.3593 39.6823L86.9659 35.2297C86.7096 34.7535 86.8882 34.1593 87.365 33.9036C87.8407 33.6467 88.4348 33.8258 88.6911 34.3027L91.0845 38.7554C91.3408 39.2316 91.1616 39.8258 90.6854 40.0821C90.5381 40.1611 90.3794 40.1988 90.2225 40.1988Z" fill="#FFD551"/>
</g>
<defs>
<clipPath id="clip0">
<rect width="79" height="79" fill="white" transform="translate(30)"/>
</clipPath>
</defs>
</svg>
