<svg width="15" height="13" viewBox="0 0 15 13" fill="none" xmlns="http://www.w3.org/2000/svg">
<path d="M12.8425 0H2.78627C1.73484 0 0.879395 0.855277 0.879395 1.90687V8.06109C0.879395 9.11032 1.73112 9.96424 2.77949 9.96797V12.7607L6.79294 9.96797H12.8425C13.8939 9.96797 14.7494 9.11252 14.7494 8.06109V1.90687C14.7494 0.855277 13.8939 0 12.8425 0ZM13.9367 8.06109C13.9367 8.66435 13.4459 9.15527 12.8425 9.15527H6.53795L3.59219 11.2051V9.15527H2.78627C2.18292 9.15527 1.69209 8.66435 1.69209 8.06109V1.90687C1.69209 1.30345 2.18292 0.812696 2.78627 0.812696H12.8425C13.4459 0.812696 13.9367 1.30345 13.9367 1.90687V8.06109Z" fill="white"/>
<path d="M4.59082 3.5H11.0364V4.31269H4.59082V3.5Z" fill="white"/>
<path d="M4.59082 5.60535H11.0364V6.41804H4.59082V5.60535Z" fill="white"/>
</svg>
