<svg width="140" height="80" viewBox="0 0 140 80" fill="none" xmlns="http://www.w3.org/2000/svg">
<mask id="mask0" mask-type="alpha" maskUnits="userSpaceOnUse" x="0" y="0" width="140" height="80">
<rect width="140" height="80" fill="#C4C4C4"/>
</mask>
<g mask="url(#mask0)">
</g>
<path d="M62.9677 27.1445C61.191 30.9265 57.3162 33.5276 52.8429 33.448C46.9796 33.3436 42.1892 28.5531 42.0848 22.6898C42.0095 18.4589 44.3321 14.7634 47.784 12.872C47.9804 12.7644 48.2074 12.965 48.1248 13.1731C47.5929 14.5111 47.317 15.9787 47.3574 17.5154C47.5099 23.3023 52.2315 28.0233 58.0184 28.1753C59.7912 28.2219 61.4718 27.8473 62.9677 27.1445Z" fill="#FFC14F"/>
<path d="M64.0028 22.4902C64.0028 24.428 63.4998 26.2485 62.6173 27.8278C61.0378 28.7103 59.2175 29.2133 57.2795 29.2133C51.2265 29.2133 46.3198 24.3064 46.3198 18.2536C46.3198 16.3156 46.8228 14.4953 47.7053 12.9158C49.2848 12.0333 51.1051 11.5303 53.0431 11.5303C59.0959 11.5303 64.0028 16.4372 64.0028 22.4902Z" fill="#FFF36C"/>
<path d="M98.9474 28.125C98.9474 29.4193 97.898 30.4687 96.6037 30.4687H94.6466C93.3522 30.4687 92.3029 31.5181 92.3029 32.8125C92.3029 34.1068 91.2535 35.1562 89.9591 35.1562H82.7738C81.4794 35.1562 80.4301 34.1068 80.4301 32.8125C80.4301 31.5181 81.4794 30.4687 82.7738 30.4687H83.7091C85.0035 30.4687 86.0529 29.4193 86.0529 28.125C86.0529 26.8306 87.1022 25.7812 88.3966 25.7812H96.6037C97.898 25.7812 98.9474 26.8306 98.9474 28.125ZM37.2729 29.2519H32.5854C31.2911 29.2519 30.2417 30.3013 30.2417 31.5956C30.2417 32.89 31.2911 33.9394 32.5854 33.9394H37.2729C38.5673 33.9394 39.6167 32.89 39.6167 31.5956C39.6167 30.3013 38.5673 29.2519 37.2729 29.2519ZM81.719 16.9537H77.0315C75.7371 16.9537 74.6877 18.0031 74.6877 19.2975C74.6877 20.5918 75.7371 21.6412 77.0315 21.6412H81.719C83.0133 21.6412 84.0627 20.5918 84.0627 19.2975C84.0627 18.0031 83.0133 16.9537 81.719 16.9537ZM106.203 11.5151H101.515C100.221 11.5151 99.1716 12.5645 99.1716 13.8589C99.1716 15.1533 100.221 16.2026 101.515 16.2026H106.203C107.497 16.2026 108.547 15.1533 108.547 13.8589C108.547 12.5645 107.497 11.5151 106.203 11.5151ZM43.4377 53.7792C44.7321 53.7792 45.7815 52.7298 45.7815 51.4354C45.7815 50.1411 44.7321 49.0917 43.4377 49.0917H38.7502C37.4558 49.0917 36.4065 50.1411 36.4065 51.4354C36.4065 52.7298 37.4558 53.7792 38.7502 53.7792H43.4377ZM61.4969 35.0931C60.2026 35.0931 59.1532 34.0437 59.1532 32.7493C59.1532 31.455 58.1038 30.4056 56.8094 30.4056H55.2469C53.9526 30.4056 52.9032 31.455 52.9032 32.7493C52.9032 34.0437 51.8538 35.0931 50.5594 35.0931C49.2651 35.0931 48.2157 36.1425 48.2157 37.4368C48.2157 38.7312 49.2651 39.7806 50.5594 39.7806H61.4969C62.7913 39.7806 63.8407 38.7312 63.8407 37.4368C63.8407 36.1423 62.7913 35.0931 61.4969 35.0931Z" fill="#C2EAF2"/>
<path d="M70.7812 14.0625V43.75C70.7812 44.1814 70.4314 44.5313 70 44.5313C69.5686 44.5313 69.2188 44.1814 69.2188 43.75V14.0625C69.2188 13.6311 69.5686 13.2813 70 13.2813C70.4314 13.2813 70.7812 13.6311 70.7812 14.0625Z" fill="#453D83"/>
<path d="M82.5 29.6875V75.5666H70H57.5V29.6875H61.25C60.387 29.6875 59.6875 28.988 59.6875 28.125V26.875C59.6875 26.012 60.387 25.3125 61.25 25.3125H78.75C79.613 25.3125 80.3125 26.012 80.3125 26.875V28.125C80.3125 28.988 79.613 29.6875 78.75 29.6875H82.5Z" fill="#5F55AF"/>
<path d="M57.5 29.6875H61.25V57.8125H57.5V29.6875ZM64.0023 28.125V26.875C64.0023 26.012 64.7019 25.3125 65.5648 25.3125H61.25C60.387 25.3125 59.6875 26.012 59.6875 26.875V28.125C59.6875 28.988 60.387 29.6875 61.25 29.6875H65.5648C64.7019 29.6875 64.0023 28.988 64.0023 28.125Z" fill="#51489A"/>
<path d="M75.3462 35.8744H60.7534C60.322 35.8744 59.9722 35.5245 59.9722 35.0931C59.9722 34.6617 60.322 34.3119 60.7534 34.3119H75.3462C75.7776 34.3119 76.1275 34.6617 76.1275 35.0931C76.1275 35.5245 75.7776 35.8744 75.3462 35.8744ZM80.0287 39.3811C80.0287 38.9497 79.6789 38.5998 79.2475 38.5998H75.0786C74.6472 38.5998 74.2973 38.9497 74.2973 39.3811C74.2973 39.8125 74.6472 40.1623 75.0786 40.1623H79.2475C79.679 40.1623 80.0287 39.8127 80.0287 39.3811ZM73.6275 43.6692C73.6275 43.2378 73.2776 42.888 72.8462 42.888H67.5645C67.1331 42.888 66.7833 43.2378 66.7833 43.6692C66.7833 44.1006 67.1331 44.4505 67.5645 44.4505H72.8462C73.2776 44.4505 73.6275 44.1006 73.6275 43.6692ZM75.6487 52.1645C75.6487 51.7331 75.2989 51.3833 74.8675 51.3833H72.3875C71.9561 51.3833 71.6062 51.7331 71.6062 52.1645C71.6062 52.5959 71.9561 52.9458 72.3875 52.9458H74.8675C75.2989 52.9458 75.6487 52.5959 75.6487 52.1645ZM73.7047 56.25C73.7047 55.8186 73.3548 55.4687 72.9234 55.4687H67.5644C67.1329 55.4687 66.7831 55.8186 66.7831 56.25C66.7831 56.6814 67.1329 57.0312 67.5644 57.0312H72.9234C73.355 57.0312 73.7047 56.6814 73.7047 56.25ZM70.2439 60.5987C70.2439 60.1673 69.894 59.8175 69.4626 59.8175H67.5644C67.1329 59.8175 66.7831 60.1673 66.7831 60.5987C66.7831 61.0301 67.1329 61.38 67.5644 61.38H69.4626C69.8942 61.38 70.2439 61.0301 70.2439 60.5987Z" fill="#51489A"/>
<path d="M64.375 28.9062V30.4688C64.375 30.9002 64.0252 31.25 63.5937 31.25H56.7187C56.2873 31.25 55.9375 30.9002 55.9375 30.4688V28.9062C55.9375 28.4748 56.2873 28.125 56.7187 28.125H63.5937C64.0252 28.125 64.375 28.4748 64.375 28.9062Z" fill="#8078BF"/>
<path d="M84.0627 28.9062V30.4688C84.0627 30.9002 83.7129 31.25 83.2815 31.25H61.2437C60.8122 31.25 60.4624 30.9002 60.4624 30.4688V28.9062C60.4624 28.4748 60.8122 28.125 61.2437 28.125H83.2815C83.7129 28.125 84.0627 28.4748 84.0627 28.9062Z" fill="#958FCA"/>
<path d="M86.9248 66.1317V75.5067C86.9248 75.9381 86.575 76.2879 86.1436 76.2879H80.7812C80.3498 76.2879 80 75.9381 80 75.5067V66.1317C80 65.7003 80.3498 65.3504 80.7812 65.3504H86.1436C86.5752 65.3504 86.9248 65.7003 86.9248 66.1317Z" fill="#8078BF"/>
<path d="M96.4062 66.1317V75.5067C96.4062 75.9381 96.0564 76.2879 95.625 76.2879H84.6875C84.2561 76.2879 83.9062 75.9381 83.9062 75.5067V66.1317C83.9062 65.7003 84.2561 65.3504 84.6875 65.3504H95.625C96.0564 65.3504 96.4062 65.7003 96.4062 66.1317Z" fill="#958FCA"/>
<path d="M47.9583 45.4071C47.7736 46.5792 47.6755 47.806 47.6755 49.0696V74.5679L47.5758 74.5454H41.7188V53.9489C41.7188 49.964 44.205 46.5598 47.7108 45.2028C47.8438 45.1514 47.9805 45.2664 47.9583 45.4071ZM63.5938 46.875H60.1563C59.7248 46.875 59.375 47.2248 59.375 47.6562V50H55.7813C55.3498 50 55 50.3498 55 50.7812V78.1818L64.375 78.2197V47.6562C64.375 47.2248 64.0252 46.875 63.5938 46.875Z" fill="#8078BF"/>
<path d="M109.171 62.2254H105.734C105.302 62.2254 104.953 61.8756 104.953 61.4441V47.3816C104.953 46.9502 105.302 46.6004 105.734 46.6004H109.171C109.603 46.6004 109.953 46.9502 109.953 47.3816V61.4441C109.953 61.8756 109.603 62.2254 109.171 62.2254ZM52.6567 75.1455V41.5909C52.6567 40.728 51.9572 40.0284 51.0942 40.0284C49.8945 40.0284 48.7473 40.2537 47.693 40.6645C46.503 42.3908 45.7969 44.5417 45.7969 46.8739V75.1455H52.6567ZM59.1328 49.0909H64.3755V65.5086C64.3755 67.4283 62.5877 68.8642 60.7198 68.4205C60.6884 68.413 60.657 68.4055 60.6256 68.398C59.2883 68.0769 58.3514 66.8715 58.3514 65.4962V49.8722C58.3516 49.4408 58.7013 49.0909 59.1328 49.0909Z" fill="#958FCA"/>
<path d="M102.189 39.5692V77.0692C102.189 77.5006 101.839 77.8504 101.407 77.8504H92.0415C91.6101 77.8504 91.2603 77.5006 91.2603 77.0692V39.5692C91.2603 39.1378 91.6101 38.7879 92.0415 38.7879H101.407C101.839 38.7879 102.189 39.1378 102.189 39.5692Z" fill="#8078BF"/>
<path d="M93.9405 77.8504H90.4697C90.0383 77.8504 89.6885 77.5006 89.6885 77.0692V39.5692C89.6885 39.1378 90.0383 38.7879 90.4697 38.7879H93.9405C93.5091 38.7879 93.1593 39.1378 93.1593 39.5692V77.0692C93.1593 77.5006 93.5091 77.8504 93.9405 77.8504Z" fill="#6A61B4"/>
<path d="M99.3653 60.2002H92.0415C91.6101 60.2002 91.2603 59.8503 91.2603 59.4189C91.2603 58.9875 91.6101 58.6377 92.0415 58.6377H99.3653C99.7967 58.6377 100.147 58.9875 100.147 59.4189C100.147 59.8505 99.7967 60.2002 99.3653 60.2002ZM97.3507 55.131C97.3507 54.6996 97.0009 54.3497 96.5695 54.3497H92.0415C91.6101 54.3497 91.2603 54.6996 91.2603 55.131C91.2603 55.5624 91.6101 55.9122 92.0415 55.9122H96.5695C97.0009 55.9122 97.3507 55.5624 97.3507 55.131ZM100.755 50.7199C100.755 50.2885 100.405 49.9386 99.9737 49.9386H95.4457C95.0143 49.9386 94.6645 50.2885 94.6645 50.7199C94.6645 51.1513 95.0143 51.5011 95.4457 51.5011H99.9737C100.405 51.5011 100.755 51.1513 100.755 50.7199ZM100.755 46.3088C100.755 45.8774 100.405 45.5275 99.9737 45.5275H97.7596C97.3282 45.5275 96.9784 45.8774 96.9784 46.3088C96.9784 46.7402 97.3282 47.09 97.7596 47.09H99.9737C100.405 47.09 100.755 46.7402 100.755 46.3088Z" fill="#6A61B4"/>
</svg>
