<svg width="140" height="80" viewBox="0 0 140 80" fill="none" xmlns="http://www.w3.org/2000/svg">
<mask id="mask0" mask-type="alpha" maskUnits="userSpaceOnUse" x="0" y="0" width="140" height="80">
<rect width="140" height="80" fill="#C4C4C4"/>
</mask>
<g mask="url(#mask0)">
</g>
<path d="M60.4063 72.459C62.6731 68.3031 58.563 62.0174 58.563 62.0174L48.1819 51.8067C48.1819 51.8067 41.7913 47.764 37.5662 49.9937C37.2578 50.1565 36.9765 50.365 36.7292 50.6083L36.3462 50.9851C35.8849 51.4387 35.8849 52.1742 36.3462 52.6279L41.8467 58.0381L52.2277 68.2488L57.7282 73.659C58.1895 74.1126 58.9372 74.1126 59.3984 73.659L59.7815 73.2822C60.0288 73.0389 60.2409 72.7622 60.4063 72.459Z" fill="#8AC9FE"/>
<path d="M60.4065 72.4597C60.2407 72.7616 60.0289 73.0394 59.7819 73.2825L59.3982 73.6584C58.9378 74.1128 58.1888 74.1128 57.7284 73.6584L56.9595 72.9021C58.5864 69.276 55.1944 64.086 55.1944 64.086L46.1192 55.1612C46.1192 55.1612 40.8425 51.822 37.1559 53.4251L36.3456 52.628C35.8851 52.1751 35.8851 51.4384 36.3456 50.9855L36.7292 50.608C36.9764 50.365 37.2588 50.1567 37.5657 49.9936C41.7911 47.7639 48.1821 51.8066 48.1821 51.8066L58.5635 62.0177C58.5633 62.0177 62.6735 68.3036 60.4065 72.4597Z" fill="#60B7FF"/>
<path d="M76.6406 22.9896L45.9875 13.3976C45.3685 13.2038 44.693 13.3699 44.2343 13.8286L42.2671 15.7957C41.5864 16.4764 41.5864 17.5802 42.2671 18.261L61.8182 37.812L76.6406 22.9896Z" fill="#8AC9FE"/>
<path d="M76.6401 22.99L74.1652 25.465L47.6091 17.1546C46.9908 16.962 46.3159 17.1271 45.856 17.5853L43.8894 19.5537C43.8344 19.6086 43.7825 19.6686 43.7372 19.7301L42.2675 18.2603C41.586 17.5804 41.586 16.4764 42.2675 15.795L44.2341 13.8282C44.6921 13.3702 45.3688 13.2035 45.9872 13.3977L76.6401 22.99Z" fill="#60B7FF"/>
<path d="M87.0097 33.3589L96.6017 64.012C96.7955 64.631 96.6294 65.3065 96.1707 65.7652L94.2036 67.7323C93.5229 68.4131 92.4191 68.4131 91.7383 67.7323L72.1873 48.1813L87.0097 33.3589Z" fill="#8AC9FE"/>
<path d="M96.1712 65.7652L94.6675 67.269L84.2917 36.0771L87.0096 33.3594L96.6019 64.0123C96.796 64.6305 96.6293 65.3072 96.1712 65.7652Z" fill="#60B7FF"/>
<path d="M96.0478 9.12685C92.4286 8.5807 88.77 9.82966 86.2403 12.4749L43.3287 57.451C41.6737 59.1818 41.7041 61.9176 43.3976 63.6109L46.3887 66.6021C48.082 68.2954 50.8178 68.326 52.5486 66.6709L97.5248 23.7593C100.17 21.2297 101.419 17.5711 100.873 13.952C100.685 12.7059 99.153 11.9701 98.3054 11.1224C97.4577 10.2745 97.2941 9.31487 96.0478 9.12685Z" fill="#F5F8F9"/>
<path d="M97.5247 23.7599L52.5489 66.6703C50.8181 68.3265 48.0822 68.2951 46.388 66.6024L45.9043 66.1187C47.2807 66.4089 48.7684 66.035 49.8586 64.9931L94.8344 22.0814C97.4803 19.552 98.7286 15.8931 98.1822 12.2748C98.0097 11.1323 97.505 10.0996 96.7665 9.28391C97.7221 9.55444 98.5731 10.0643 99.2542 10.7454C100.101 11.5938 100.684 12.7049 100.872 13.952C101.419 17.5715 100.171 21.2292 97.5247 23.7599Z" fill="#E8EDF2"/>
<path d="M100.937 16.7901C98.8277 17.3943 96.4601 16.8654 94.7973 15.2025C93.1344 13.5395 92.6054 11.1721 93.2096 9.06262C94.143 8.96424 95.0974 8.98328 96.0478 9.12686C97.2932 9.3145 98.4051 9.89861 99.2532 10.7467C100.101 11.5947 100.685 12.7067 100.873 13.9521C101.016 14.9023 101.035 15.8568 100.937 16.7901Z" fill="#8AC9FE"/>
<path d="M100.937 16.7898C99.9535 17.0709 98.9155 17.1075 97.9168 16.8957C98.3194 15.4108 98.4188 13.8395 98.1821 12.2748C98.0096 11.1323 97.505 10.0997 96.7666 9.284C96.8574 9.38404 97.0425 9.3768 97.1616 9.41362C97.6171 9.55415 97.9922 9.77124 98.3849 10.033C98.7113 10.2506 98.9757 10.4696 99.2527 10.7466C99.9639 11.4578 100.481 12.3512 100.742 13.3244C100.909 13.9512 100.935 14.6002 100.984 15.2438C101.013 15.6287 100.998 16.0161 100.971 16.3997C100.969 16.4389 100.961 16.7827 100.937 16.7898Z" fill="#60B7FF"/>
<path d="M91.896 23.1185C91.6451 23.1185 91.3942 23.0227 91.2027 22.8313C90.8198 22.4484 90.8198 21.8277 91.2027 21.4448C91.9327 20.7147 91.9327 19.5268 91.2027 18.7969C90.849 18.4432 90.3788 18.2484 89.8787 18.2484C89.3785 18.2484 88.9084 18.4432 88.5547 18.7969C88.1718 19.1797 87.551 19.1799 87.1683 18.7969C86.7854 18.414 86.7854 17.7933 87.1683 17.4104C87.8922 16.6864 88.8548 16.2876 89.8787 16.2876C90.9026 16.2876 91.8652 16.6864 92.5892 17.4104C94.0837 18.9049 94.0837 21.3368 92.5892 22.8313C92.3978 23.0226 92.147 23.1185 91.896 23.1185Z" fill="#8AC9FE"/>
<path d="M42.9383 67.061C42.0199 66.1427 42.0199 64.6399 42.9383 63.7215L49.9865 56.6733C50.9049 55.755 52.4076 55.755 53.326 56.6733C54.2444 57.5917 54.2444 59.0945 53.326 60.0128L46.2778 67.061C45.3594 67.9794 43.8567 67.9794 42.9383 67.061Z" fill="#8D9CA8"/>
<path d="M53.3264 60.0131L46.2783 67.0612C45.3601 67.9794 43.8567 67.9794 42.9385 67.0612C42.6344 66.7571 42.4317 66.3898 42.3293 66.0003C43.1162 66.209 43.9943 66.0054 44.6084 65.3912L51.6565 58.3431C52.1162 57.8835 52.3459 57.2784 52.3449 56.6732C52.3449 56.4684 52.3189 56.2638 52.2657 56.0641C52.6551 56.1664 53.0223 56.3692 53.3265 56.6732C53.7862 57.1329 54.016 57.738 54.015 58.3431C54.0159 58.9483 53.7861 59.5534 53.3264 60.0131Z" fill="#7A8C98"/>
<path d="M97.186 65.1282C97.0595 67.0813 98.6058 68.7046 100.531 68.7046C100.558 68.7046 100.586 68.7042 100.614 68.7035C100.825 68.6982 100.999 68.8674 100.999 69.0787V72.9329C100.999 73.5218 100.521 73.9991 99.9324 73.9991H68.5292C67.9402 73.9991 67.4629 73.5217 67.4629 72.9329V69.0789C67.4629 68.8664 67.6386 68.6986 67.851 68.7037C67.9154 68.7052 67.9802 68.7048 68.0456 68.7027C69.7338 68.6444 71.1406 67.3052 71.2722 65.6211C71.4264 63.6488 69.8709 62 67.9298 62C67.9024 62 67.875 62.0004 67.8477 62.001C67.6364 62.0063 67.4629 61.8372 67.4629 61.6259V57.7716C67.4629 57.1827 67.9404 56.7053 68.5292 56.7053H99.9324C100.521 56.7053 100.999 57.1828 100.999 57.7716V61.6253C100.999 61.8387 100.821 62.0059 100.608 62.0009C100.6 62.0007 100.592 62.0005 100.583 62.0004C98.8121 61.9724 97.3007 63.3606 97.186 65.1282Z" fill="#FEF0AE"/>
<path d="M97.1865 65.1283C97.0595 67.0818 98.6059 68.7048 100.531 68.7048C100.558 68.7048 100.586 68.7048 100.613 68.7037C100.825 68.698 100.999 68.8672 100.999 69.0788V72.9334C100.999 73.5224 100.522 73.9994 99.9326 73.9994H97.5615C98.1506 73.9994 98.6813 73.4697 98.6813 72.8807L98.6985 70.3577C98.6985 70.1461 98.472 70.0307 98.2604 70.0353C98.2329 70.0364 98.2055 70.0387 98.1768 70.0364C95.6148 69.8111 94.6874 67.122 94.6988 65.1638C94.7103 63.0719 95.9398 60.9273 98.3406 60.6734C98.3497 60.6734 98.3577 60.6745 98.3657 60.6745C98.5797 60.6791 98.7569 60.5121 98.7569 60.2982V57.7716C98.7569 57.1825 98.2788 56.7056 97.6897 56.7056H99.9326C100.522 56.7056 100.999 57.1825 100.999 57.7716V61.625C100.999 61.8389 100.821 62.0059 100.607 62.0013C100.599 62.0013 100.591 62.0002 100.583 62.0002C98.8117 61.9726 97.3009 63.36 97.1865 65.1283Z" fill="#FEE45A"/>
<path d="M93.369 64.0166H75.0923C74.5508 64.0166 74.1118 63.5775 74.1118 63.0361C74.1118 62.4946 74.5508 62.0556 75.0923 62.0556H93.369C93.9104 62.0556 94.3494 62.4946 94.3494 63.0361C94.3494 63.5775 93.9104 64.0166 93.369 64.0166Z" fill="#FAC600"/>
<path d="M93.369 68.6488H75.0923C74.5508 68.6488 74.1118 68.2098 74.1118 67.6684C74.1118 67.1269 74.5508 66.6879 75.0923 66.6879H93.369C93.9104 66.6879 94.3494 67.1269 94.3494 67.6684C94.3494 68.2098 93.9104 68.6488 93.369 68.6488Z" fill="#FAC600"/>
</svg>
