<svg width="20" height="20" viewBox="0 0 20 20" fill="none" xmlns="http://www.w3.org/2000/svg">
<g clip-path="url(#clip0)">
<path d="M15.249 13.0622C18.5191 9.79208 18.6621 4.58267 15.6753 1.14541L15.7537 1.06693C15.9979 0.822866 15.9979 0.427124 15.7537 0.183062C15.5097 -0.061001 15.1139 -0.06104 14.8699 0.183062C14.3427 0.710288 13.7706 1.28236 13.2391 1.81384C10.6637 -0.314907 6.83133 -0.175024 4.42168 2.23435C4.4216 2.23443 4.42148 2.23451 4.42141 2.23459C2.01148 4.64455 1.87203 8.47716 4.00063 11.0523C3.52387 11.5291 3.12031 11.9326 2.36984 12.6831C2.12574 12.9272 2.12574 13.3229 2.36984 13.567C2.61391 13.811 3.00965 13.8111 3.25371 13.567L3.33219 13.4885C4.95164 14.8958 7.0668 15.6994 9.37426 15.619V18.75H6.56176C6.21656 18.75 5.93676 19.0299 5.93676 19.375C5.93676 19.7202 6.21656 20 6.56176 20H13.4368C13.782 20 14.0618 19.7202 14.0618 19.375C14.0618 19.0299 13.782 18.75 13.4368 18.75H10.6243V15.4863C12.3668 15.1739 13.9708 14.3404 15.249 13.0622ZM12.8183 3.11853C12.9333 3.23353 13.0267 3.72005 12.5568 4.7381C12.1375 5.64677 11.4352 6.6288 10.6028 7.53209L8.40473 5.33404C9.30801 4.50158 10.29 3.79935 11.1987 3.37998C11.7866 3.10865 12.1971 3.02517 12.4614 3.02517C12.6547 3.02517 12.7697 3.0699 12.8183 3.11853ZM9.71887 8.41599C8.81559 9.24845 7.83355 9.95068 6.92488 10.3701C5.90687 10.8399 5.42031 10.7466 5.30531 10.6315C5.19027 10.5165 5.09691 10.03 5.56676 9.01197C5.98613 8.1033 6.68836 7.12126 7.52082 6.21798L9.71887 8.41599ZM10.6004 9.29751L12.3502 11.0473C10.7818 12.2853 8.67137 12.5126 6.90379 11.7293C8.21969 11.2571 9.57527 10.2495 10.6004 9.29751ZM13.2341 10.1635L11.4843 8.41365C12.4438 7.38033 13.4456 6.02798 13.9159 4.71654C14.6995 6.48423 14.4722 8.5949 13.2341 10.1635ZM11.2202 2.02095C9.90773 2.49162 8.5566 3.49291 7.5232 4.45248L5.7734 2.70267C7.33004 1.47392 9.43711 1.23056 11.2202 2.02095ZM4.88949 3.58658L6.6393 5.33638C5.67981 6.3697 4.67805 7.72205 4.20773 9.03349C3.4241 7.2658 3.65141 5.15513 4.88949 3.58658ZM4.21883 12.6019L4.88453 11.9361C7.45355 14.0597 11.2862 13.9314 13.7022 11.5154C16.1121 9.1056 16.2516 5.27291 14.123 2.69771L14.7887 2.03201C17.2508 4.9338 17.1862 9.3572 14.3652 12.1783C11.5448 14.9986 7.1216 15.0648 4.21883 12.6019Z" fill="white"/>
</g>
<defs>
<clipPath id="clip0">
<rect width="20" height="20" fill="white"/>
</clipPath>
</defs>
</svg>
