<svg width="140" height="80" viewBox="0 0 140 80" fill="none" xmlns="http://www.w3.org/2000/svg">
<mask id="mask0" mask-type="alpha" maskUnits="userSpaceOnUse" x="0" y="0" width="140" height="80">
<rect width="140" height="80" fill="#C4C4C4"/>
</mask>
<g mask="url(#mask0)">
<path d="M101.613 33.2944V67.2372C101.613 70.7163 98.7923 73.5335 95.3166 73.5335H25.9546C22.4755 73.5335 19.6582 70.7129 19.6582 67.2372V33.2944C19.6582 29.8153 22.4788 26.998 25.9546 26.998H95.3166C98.7957 26.998 101.613 29.8187 101.613 33.2944Z" fill="#FFE5A0"/>
<path d="M93.1847 62.0235H28.0825V64.9494H93.1847V62.0235Z" fill="#3E4347"/>
<path d="M28.0791 57.3599V43.1718H30.9439V48.7554H36.558V43.1718H39.4228V57.3599H36.558V51.1551H30.9439V57.3599H28.0791Z" fill="#FF9F46"/>
<path d="M41.8022 50.354C41.8022 45.4527 44.5923 42.9307 48.6621 42.9307C52.6436 42.9307 55.5626 45.4357 55.5626 50.2861C55.5626 55.028 52.7386 57.6008 48.7028 57.6008C44.6297 57.6008 41.8022 55.0483 41.8022 50.354ZM44.7553 50.2556C44.7553 53.6431 46.5576 55.1535 48.6926 55.1535C50.8446 55.1535 52.6028 53.6533 52.6028 50.2183C52.6028 46.807 50.9057 45.378 48.6926 45.378C46.4626 45.378 44.7553 46.8511 44.7553 50.2556Z" fill="#FF9F46"/>
<path d="M60.9936 57.3599V45.5716H56.7847V43.1718H68.0605V45.5716H63.8617V57.3599H60.9936Z" fill="#FF9F46"/>
<path d="M69.9067 57.3599V43.1718H80.4256V45.5716H72.7715V48.718H79.8927V51.1076H72.7715V54.9703H80.6971V57.3599H69.9067Z" fill="#FF9F46"/>
<path d="M83.2021 57.3598V43.2872H86.0669V54.9669H93.1881V57.3564H83.2021V57.3598Z" fill="#FF9F46"/>
<path d="M30.126 22.1713V32.5374C30.126 34.2074 31.4803 35.5583 33.1469 35.5583C34.8169 35.5583 36.1712 34.2074 36.1712 32.5374V22.1713H30.126Z" fill="#3E4347"/>
<path d="M33.1437 33.7797C33.8279 33.7797 34.3826 33.225 34.3826 32.5408C34.3826 31.8566 33.8279 31.3019 33.1437 31.3019C32.4595 31.3019 31.9048 31.8566 31.9048 32.5408C31.9048 33.225 32.4595 33.7797 33.1437 33.7797Z" fill="white"/>
<path d="M85.0996 22.1713V32.5374C85.0996 34.2074 86.4539 35.5583 88.1205 35.5583C89.7905 35.5583 91.1448 34.2074 91.1448 32.5374V22.1713H85.0996Z" fill="#3E4347"/>
<path d="M88.1207 33.7797C88.805 33.7797 89.3597 33.225 89.3597 32.5408C89.3597 31.8566 88.805 31.3019 88.1207 31.3019C87.4365 31.3019 86.8818 31.8566 86.8818 32.5408C86.8818 33.225 87.4365 33.7797 88.1207 33.7797Z" fill="white"/>
<path d="M108.944 17.5449H18.4667C16.7594 17.5449 15.3745 18.9297 15.3745 20.6371C15.3745 22.3444 16.7594 23.7292 18.4667 23.7292H108.944V17.5449Z" fill="#5A5F63"/>
<path d="M108.945 17.5449H106.864C106.864 17.5449 75.8267 24.5303 15.5342 21.4347C15.8906 22.7449 17.0412 23.7292 18.4668 23.7292H108.945V17.5449Z" fill="#3E4347"/>
<path d="M123.211 19.0724C124.249 19.8701 124.249 21.4212 123.207 22.2155C120.818 24.0382 116.823 26.7978 114.545 26.7978C111.14 26.7978 108.395 24.0518 108.395 20.6473C108.395 17.2429 111.14 14.4664 114.545 14.4664C116.826 14.4664 120.824 17.2395 123.211 19.0724Z" fill="#CBD6E0"/>
<path d="M123.211 22.2121C120.835 24.045 116.829 26.7944 114.555 26.7944C113.231 26.7944 112.009 26.3871 110.991 25.6403C116.456 25.233 120.699 21.9066 120.699 17.8674C120.699 17.6638 120.699 17.4262 120.631 17.2225C121.581 17.8674 122.464 18.5123 123.211 19.0894C124.263 19.8701 124.263 21.4314 123.211 22.2121Z" fill="#BBC7D1"/>
<path d="M109.929 16.5403V24.7239C109.929 25.5657 109.226 26.2717 108.381 26.2717C107.536 26.2717 106.86 25.5691 106.86 24.7239V16.5403C106.86 15.6951 107.536 14.9925 108.381 14.9925C109.226 14.9925 109.929 15.6951 109.929 16.5403Z" fill="#DAE5EF"/>
</g>
</svg>
