<svg width="22" height="22" viewBox="0 0 22 22" fill="none" xmlns="http://www.w3.org/2000/svg">
<path d="M2.8248 0.000976562H19.1765C20.73 0.000976562 22 1.2714 22 2.8249V19.1766C22 20.7297 20.73 21.9992 19.1765 21.9992H2.8248C1.27131 21.9992 0 20.7296 0 19.1766V2.8249C0 1.2714 1.27131 0.000976562 2.8248 0.000976562ZM16.0267 2.44422C15.4813 2.44422 15.0363 2.8909 15.0363 3.43606V5.80575C15.0363 6.35113 15.4813 6.79678 16.0267 6.79678H18.5129C19.0575 6.79678 19.5034 6.35113 19.5034 5.80575V3.43606C19.5034 2.8909 19.0575 2.44422 18.5129 2.44422H16.0267ZM19.5128 9.30375H17.5771C17.7607 9.90325 17.8602 10.5355 17.8602 11.1927C17.8602 14.8508 14.7973 17.8177 11.0207 17.8177C7.24497 17.8177 4.18205 14.8508 4.18205 11.1927C4.18205 10.5355 4.28252 9.90325 4.46519 9.30375H2.44567V18.5974C2.44567 19.0787 2.83866 19.4702 3.31951 19.4702H18.6394C19.1206 19.4702 19.5128 19.0787 19.5128 18.5974V9.30375ZM11.0208 6.67182C8.58169 6.67182 6.60315 8.58787 6.60315 10.9536C6.60315 13.3169 8.58169 15.2344 11.0208 15.2344C13.4611 15.2344 15.4397 13.3169 15.4397 10.9536C15.4397 8.5878 13.4611 6.67182 11.0208 6.67182Z" fill="white"/>
</svg>
