<svg width="64" height="64" viewBox="0 0 64 64" fill="none" xmlns="http://www.w3.org/2000/svg">
<path d="M60.8922 0.887623C60.8902 0.849873 60.8858 0.812373 60.8793 0.775249C60.878 0.767374 60.8761 0.759624 60.8746 0.751749C60.868 0.718749 60.8596 0.686124 60.8493 0.653749C60.8476 0.648124 60.8461 0.642499 60.8442 0.636874C60.8318 0.600249 60.8171 0.564374 60.8001 0.529249C60.7972 0.523374 60.794 0.517624 60.791 0.511749C60.7753 0.481124 60.758 0.451249 60.7388 0.422124C60.7353 0.416749 60.7321 0.411374 60.7285 0.406124C60.7065 0.374249 60.6825 0.343499 60.6561 0.313999C60.6511 0.308374 60.6456 0.303124 60.6405 0.297624C60.6281 0.284499 60.6162 0.270999 60.6031 0.258374C60.5917 0.2475 60.5795 0.237875 60.5677 0.22775C60.5636 0.22425 60.5603 0.220125 60.5561 0.216625C60.5537 0.214625 60.551 0.21325 60.5486 0.21125C60.5177 0.186 60.4857 0.162875 60.4526 0.142125C60.4477 0.139125 60.4426 0.1365 60.4376 0.1335C60.4078 0.115625 60.3773 0.0997498 60.3461 0.0854998C60.3387 0.0821248 60.3316 0.0786248 60.3241 0.0753749C60.2888 0.0603749 60.253 0.0472499 60.2163 0.0367499C60.21 0.0348749 60.2036 0.0336249 60.1971 0.0318749C60.1657 0.023625 60.1341 0.017 60.1022 0.012C60.0928 0.0105 60.0836 0.00887498 60.0741 0.00762499C60.0375 0.00299999 60.0007 0.00025 59.9638 0C59.9557 0 59.9476 0.000499999 59.9393 0.000624999C59.908 0.00125 59.8766 0.00337499 59.8453 0.00712499C59.8361 0.00824998 59.827 0.00899998 59.8178 0.010375C59.7803 0.015875 59.7432 0.023625 59.7065 0.0338749C59.7 0.0356249 59.6936 0.0378749 59.6871 0.0398749C59.6533 0.0499999 59.6201 0.0621249 59.5873 0.0759999C59.5835 0.0776248 59.5793 0.0786249 59.5755 0.0803748L19.0964 18.0715C18.6233 18.2818 18.4102 18.8357 18.6204 19.309C18.8307 19.782 19.3847 19.9951 19.8578 19.785L54.826 4.24362L22.5102 32.9688L6.35219 25.7875L16.1143 21.4487C16.5874 21.2383 16.8005 20.6845 16.5903 20.2113C16.38 19.7383 15.8259 19.5252 15.3529 19.7353L3.66319 24.9307C3.32469 25.0812 3.10645 25.417 3.10645 25.7875C3.10645 26.158 3.32469 26.4936 3.66319 26.6442L21.8215 34.7146L23.8232 49.7262C23.8238 49.7304 23.8253 49.7343 23.8259 49.7387C23.8325 49.7839 23.8419 49.8289 23.8552 49.873C23.8565 49.8775 23.8583 49.8819 23.8597 49.8863C23.8729 49.9283 23.8893 49.9694 23.9087 50.0094C23.9105 50.0133 23.912 50.0174 23.914 50.0213C23.9338 50.0608 23.957 50.0989 23.9828 50.136C23.9878 50.1433 23.9929 50.1503 23.9982 50.1573C24.0244 50.1929 24.0524 50.2275 24.0843 50.2599C24.1164 50.2925 24.1509 50.3213 24.1864 50.3483C24.1934 50.3537 24.2004 50.359 24.2077 50.364C24.2445 50.3904 24.2825 50.4143 24.3219 50.4348C24.3252 50.4364 24.3285 50.4378 24.3318 50.4394C24.3717 50.4594 24.4127 50.4763 24.4544 50.4903C24.4595 50.492 24.4644 50.494 24.4697 50.4957C24.5135 50.5095 24.5582 50.5195 24.6033 50.5269C24.6073 50.5275 24.611 50.529 24.6152 50.5297C24.62 50.5304 24.6247 50.53 24.6295 50.5308C24.6704 50.5362 24.7114 50.5399 24.7525 50.5399C24.7527 50.5399 24.7527 50.5399 24.7528 50.5399H24.7529C24.7532 50.5399 24.7534 50.5398 24.7535 50.5398C24.7934 50.5398 24.8332 50.5363 24.8727 50.5312C24.8822 50.5299 24.8917 50.5287 24.901 50.5272C24.9797 50.5145 25.0569 50.4919 25.1309 50.4592C25.1382 50.4559 25.1453 50.4527 25.1525 50.4493C25.1874 50.4328 25.2217 50.4147 25.2547 50.3937C25.2559 50.3928 25.2573 50.3922 25.2587 50.3913C25.2918 50.37 25.3237 50.3459 25.3544 50.3199C25.3624 50.3132 25.37 50.306 25.3779 50.299C25.3887 50.2894 25.3998 50.2805 25.4102 50.2704L33.466 42.3394L46.9357 53.4321C47.106 53.5724 47.3174 53.646 47.5319 53.646C47.6316 53.646 47.7321 53.63 47.8295 53.5974C48.136 53.4949 48.368 53.2415 48.4434 52.9273L60.8682 1.15612C60.8688 1.15362 60.8688 1.15112 60.8695 1.14875C60.8783 1.11025 60.8848 1.0715 60.8887 1.0325C60.8895 1.02525 60.8897 1.018 60.8902 1.01075C60.8928 0.977373 60.8936 0.943873 60.8927 0.910498C60.8925 0.902873 60.8927 0.895248 60.8922 0.887623ZM25.25 46.2414L23.6765 34.4404L52.1584 9.12348L29.1993 37.6242C29.1949 37.6296 29.1914 37.6357 29.1871 37.6413C29.1698 37.6638 29.1534 37.6867 29.1384 37.7103C29.1326 37.7194 29.1274 37.7287 29.1219 37.7379C29.108 37.7614 29.0953 37.7853 29.0836 37.8097C29.0813 37.8147 29.0781 37.8193 29.0759 37.8243L25.25 46.2414ZM27.6985 45.386L30.277 39.7132L32.0106 41.1408L27.6985 45.386ZM46.97 51.0312L31.2413 38.0782L58.0725 4.77074L46.97 51.0312Z" fill="#1E4FA2"/>
<path d="M31.6279 49.9742C31.2619 49.6082 30.6683 49.6081 30.3022 49.9744L22.0192 58.2575C21.6531 58.6237 21.6531 59.2172 22.0192 59.5833C22.2022 59.7663 22.4422 59.8578 22.6821 59.8578C22.922 59.8578 23.162 59.7663 23.345 59.5832L31.6279 51.3001C31.9941 50.9339 31.9941 50.3404 31.6279 49.9742Z" fill="#1E4FA2"/>
<path d="M19.2026 39.6847C18.8366 39.3187 18.243 39.3187 17.8769 39.6847L9.65838 47.9033C9.29226 48.2695 9.29226 48.863 9.65838 49.2291C9.84138 49.4121 10.0814 49.5036 10.3213 49.5036C10.5611 49.5036 10.8011 49.412 10.9841 49.2291L19.2026 41.0105C19.5687 40.6443 19.5687 40.0508 19.2026 39.6847Z" fill="#1E4FA2"/>
<path d="M19.2024 49.9743C18.8364 49.6083 18.2428 49.6083 17.8767 49.9743L5.45184 62.3995C5.08572 62.7658 5.08572 63.3593 5.45184 63.7254C5.63484 63.9084 5.87484 63.9999 6.11471 63.9999C6.35459 63.9999 6.59459 63.9084 6.77759 63.7253L19.2024 51.3002C19.5686 50.934 19.5686 50.3405 19.2024 49.9743Z" fill="#1E4FA2"/>
</svg>
